<svg xmlns="http://www.w3.org/2000/svg" viewBox="0 0 599.16 151.01"><defs><style>.cls-1,.cls-2{fill:#fff;}.cls-2{font-size:8.42px;font-family:Franie-Regular, Franie;}.cls-3{letter-spacing:-0.01em;}.cls-4{fill:none;stroke:#fff;stroke-miterlimit:10;}</style></defs><g id="Camada_2" data-name="Camada 2"><g id="Camada_1-2" data-name="Camada 1"><path class="cls-1" d="M426.82,84.25c-3.61,10-12.84,16-23.81,16s-20.3-6-23.71-16H364.62c4.3,17.23,18.84,28.45,38.39,28.45,19.92,0,33.79-11.18,38.69-28.45ZM403.37,33.48c-23.46,0-40.08,16.15-40.08,39.73a45,45,0,0,0,.25,4.83h79.32C445,52.1,428.12,33.48,403.37,33.48Zm-24.88,33c2.48-12.62,12.26-20.63,25-20.63,11.91,0,21.81,7.31,24.41,20.5Z"/><path class="cls-1" d="M501.19,1.43l-19.8,25.34L461.7,1.43H445.21l27.94,36.78L442.86,78h16.49l22-28.52,8.26-11.31,28-36.78Zm-2.91,48.09H481.39L503.56,78h16.51Z"/><path class="cls-1" d="M561.56,49.52c-12,0-21.69,5.06-27.7,13.55V49.52H520.07V151h13.79V115.29c6,8.37,15.67,13.44,27.7,13.44,21.45,0,37.6-16,37.6-39.61S583,49.52,561.56,49.52Zm-2.36,66.83c-15.21,0-25.34-11-25.34-27.23S544,61.89,559.2,61.89,584.89,73,584.89,89.12,574.29,116.35,559.2,116.35Z"/><text class="cls-2" transform="translate(520.06 7.71)">Saúde <tspan x="0" y="10.11">Empreende</tspan><tspan x="0" y="20.22">Experience</tspan><tspan class="cls-3" x="0" y="30.33">P</tspan><tspan x="5.85" y="30.33">ocket</tspan></text><path class="cls-1" d="M91.87,63.63A15.09,15.09,0,0,0,79.64,49.19a14.36,14.36,0,0,0-6.89.36c-3.4,1-5.46,3.21-7.46,5.61L60.69,50a3.12,3.12,0,0,0-2.34-1.06H41.94a3.14,3.14,0,0,0-3.13,3.14v2.35a15.25,15.25,0,0,1,2.93,10.11,11.85,11.85,0,0,1-2.93,7.36V75a12.56,12.56,0,0,1,3.83,5.85,17.64,17.64,0,0,1,.69,3.64V53.45h14.4l5.52,6.21a2.8,2.8,0,0,0,2.14.94,2.75,2.75,0,0,0,2.11-1l.56-.67c2-2.48,3.5-4.27,6-5a10.12,10.12,0,0,1,9,1.6,10.27,10.27,0,0,1,4.31,8.21c.07,4.55-1.62,8.83-5.16,13.09A88.67,88.67,0,0,1,71,87.37l-.86.72c-1.4,1.19-2.79,2.33-4.27,3.54l-.47.39a.17.17,0,0,1-.21,0l-1-.83c-1.94-1.58-3.77-3.08-5.55-4.68l-2.58-2.33L55.9,84a2,2,0,0,0-.52-.29,2.31,2.31,0,0,0-.7-.16h-.15a2.18,2.18,0,0,0-.89.19,2.24,2.24,0,0,0-.76.55,2.33,2.33,0,0,0-.47.78,2.5,2.5,0,0,0-.11.49c0,.08,0,.17,0,.26V97.56h-9V87.78a18.92,18.92,0,0,1-.59,3.39A15,15,0,0,1,38.81,98V99a3.14,3.14,0,0,0,3.13,3.13H53.67A3.14,3.14,0,0,0,56.81,99v-8c1.5,1.3,3,2.56,4.54,3.79l1,.82a4.65,4.65,0,0,0,3,1.06h0a4.71,4.71,0,0,0,3-1.06l.47-.39c1.49-1.22,2.9-2.37,4.32-3.58l.85-.72A90.45,90.45,0,0,0,85.66,79.66a28.43,28.43,0,0,0,4.54-7.33A21.94,21.94,0,0,0,91.87,63.63Z"/><path class="cls-1" d="M88.73,102.08H77A3.14,3.14,0,0,1,73.87,99V95.71a2.26,2.26,0,0,1,4.52,0v1.85h9V84.23a2.26,2.26,0,0,1,4.52,0V99A3.14,3.14,0,0,1,88.73,102.08Z"/><path class="cls-1" d="M93.83,75.38c0-4.9,0-9.8,0-14.69a2,2,0,0,1,.47-1.38c6.41-7.91,14.71-11.57,24.79-10,10.36,1.57,17.57,7.62,21.12,17.46a26.33,26.33,0,0,1-20.49,34.8c-10.34,1.74-18.85-1.86-25.45-10a1.92,1.92,0,0,1-.44-1.3C93.84,85.28,93.83,80.33,93.83,75.38Zm21.53,13.27a8.63,8.63,0,0,0,2.2-.23,13.31,13.31,0,0,0,8.91-18.94,12.53,12.53,0,0,0-14.7-6.66A13.3,13.3,0,0,0,103,78.49,13,13,0,0,0,115.36,88.65Z"/><path class="cls-1" d="M181.33,84.26a38.25,38.25,0,0,0,6.9,3.3,17.74,17.74,0,0,0,9,.94,5.5,5.5,0,0,0,2.36-.93,2.37,2.37,0,0,0-.42-4.29,22.32,22.32,0,0,0-4.9-1.12c-3.92-.75-7.88-1.26-11.61-2.83a1.51,1.51,0,0,1-1.12-1.68q.06-12.74,0-25.48a1.15,1.15,0,0,1,.9-1.28,31.39,31.39,0,0,1,12.6-1.69,30.08,30.08,0,0,1,16.61,6.2c1.49,1.11,1.61,1.84.56,3.34-1.64,2.34-3.28,4.69-4.93,7a1.79,1.79,0,0,1-2.82.57,24.75,24.75,0,0,0-10.12-3.84,18.35,18.35,0,0,0-5.18.07,3.77,3.77,0,0,0-1.67.65,1.84,1.84,0,0,0,0,3.19A13.59,13.59,0,0,0,191.09,68c2.46.82,5,1.08,7.56,1.66a26.39,26.39,0,0,1,9.48,3.7,14.19,14.19,0,0,1,6.51,11.77c.1,4-.65,7.65-3.24,10.78a15.24,15.24,0,0,1-8.89,5.15c-9.21,2-18,.83-26.1-4.12-.55-.34-.65-.51-.17-1.07a22.26,22.26,0,0,0,4.9-10.77l.09-.44C181.25,84.55,181.28,84.46,181.33,84.26Z"/><path class="cls-1" d="M208.43,100.9a21.72,21.72,0,0,0,3.07-2.24,16.28,16.28,0,0,0,5.05-11.1,17.72,17.72,0,0,0-1.2-8.5,17.34,17.34,0,0,0-8.69-8.82.89.89,0,0,1-.61-1c0-.43.13-.62.58-.7a3.27,3.27,0,0,0,2.12-1.45c1.82-2.59,3.64-5.17,5.44-7.77a3.7,3.7,0,0,0-.82-5.1,36,36,0,0,0-6-3.78c-.17-.08-.39-.11-.5-.35a1.32,1.32,0,0,1,1-.27h35.21c1.31,0,1.9.62,1.9,2,0,3,0,5.93,0,8.89a1.74,1.74,0,0,1-2,2H222.18c-1.76,0-2.27.52-2.27,2.31v1.8c0,1.61.58,2.2,2.17,2.2H240c.22,0,.45,0,.67,0a1.57,1.57,0,0,1,1.59,1.58c0,3.26,0,6.53,0,9.79,0,1-.72,1.61-1.87,1.61H221.72a1.68,1.68,0,0,0-1.8,1.78c0,.76,0,1.51,0,2.27a1.75,1.75,0,0,0,2,2h21.33A1.67,1.67,0,0,1,245,89.83q0,4.71,0,9.42a1.65,1.65,0,0,1-1.8,1.78H208.79C208.68,101,208.54,101.07,208.43,100.9Z"/><path class="cls-1" d="M179.64,66.71c0,4.5,0,9,0,13.49a21.82,21.82,0,0,1-4.37,13.74,19.92,19.92,0,0,1-12.55,7.42,25.89,25.89,0,0,1-16-1.69,19.45,19.45,0,0,1-8.08-6.82,1,1,0,0,1,0-1.38,28.21,28.21,0,0,0-1.35-33.94,17.12,17.12,0,0,0-1.67-1.84A1.82,1.82,0,0,1,135,54.1c0-.77,0-1.55,0-2.33a1.69,1.69,0,0,1,1.88-1.86h9.87c1.53,0,2.1.57,2.11,2.08V79.88a10,10,0,0,0,1.23,5.21A8.42,8.42,0,0,0,159,88.92a8,8,0,0,0,6.62-6.73,15.66,15.66,0,0,0,.17-2.56V52.12a2.41,2.41,0,0,1,.33-1.51,1.72,1.72,0,0,1,1.5-.71H177.8a1.65,1.65,0,0,1,1.84,1.88C179.65,56.76,179.64,61.74,179.64,66.71Z"/><path class="cls-1" d="M40.86,81.43a10.7,10.7,0,0,0-2-3.74A13.83,13.83,0,0,0,35,74.63c-.88-.5-.89-.88-.12-1.53.15-.13.32-.24.47-.37a14.47,14.47,0,0,0,3.45-4.17,9.35,9.35,0,0,0,1.06-4.09,14.77,14.77,0,0,0-1.06-6.37,12.29,12.29,0,0,0-4.89-5.61,17.53,17.53,0,0,0-9.33-2.57c-7.43-.1-14.87-.05-22.3-.07C.51,49.85,0,50.36,0,52.14V97c0,.78,0,1.56,0,2.34A1.64,1.64,0,0,0,1.8,101c7.86,0,15.72,0,23.59,0a20.18,20.18,0,0,0,9-2.08,12.17,12.17,0,0,0,4.4-3.72C41.9,90.93,42,85.15,40.86,81.43ZM19.52,88.18h0c-1.26,0-2.51,0-3.77,0a1.71,1.71,0,0,1-1.88-1.86c0-1.21,0-2.41,0-3.62a1.72,1.72,0,0,1,1.93-1.88h7a4,4,0,0,1,3.93,2.93,3.57,3.57,0,0,1-3.38,4.42C22.08,88.21,20.8,88.18,19.52,88.18Zm2.69-18.92c-2.23.06-4.47,0-6.7,0a1.61,1.61,0,0,1-1.63-1.63c0-1.08,0-2.16,0-3.24a1.64,1.64,0,0,1,1.74-1.68c1.11,0,2.21,0,3.32,0H22a3.29,3.29,0,0,1,.2,6.55Z"/><line class="cls-4" x1="304.17" y1="17.55" x2="304.17" y2="133.46"/></g></g></svg>