<svg xmlns="http://www.w3.org/2000/svg" viewBox="0 0 403.58 258.38"><defs><style>.cls-1,.cls-2{fill:#fff;}.cls-2{font-size:14.42px;font-family:Franie-Regular, Franie;}.cls-3{letter-spacing:-0.02em;}</style></defs><g id="Camada_2" data-name="Camada 2"><g id="Camada_1-2" data-name="Camada 1"><path class="cls-1" d="M108.71,144.15c-6.19,17-22,27.29-40.75,27.29-18.58,0-34.74-10.31-40.57-27.29H2.27C9.64,173.64,34.52,192.83,68,192.83c34.08,0,57.81-19.13,66.21-48.68ZM68.57,57.28C28.43,57.28,0,84.92,0,125.26a79.9,79.9,0,0,0,.42,8.27H136.14C139.76,89.15,110.92,57.28,68.57,57.28ZM26,113.76c4.24-21.58,21-35.29,42.76-35.29,20.37,0,37.32,12.5,41.76,35.08Z"/><path class="cls-1" d="M236,2.45,202.07,45.8,168.39,2.45H140.17L188,65.38l-51.83,68.15h28.22l37.71-48.8,14.14-19.35,48-62.93Zm-5,82.28h-28.9L240,133.53h28.25Z"/><path class="cls-1" d="M339.24,84.73c-20.57,0-37.11,8.66-47.39,23.19V84.73h-23.6V258.38h23.6V197.27c10.28,14.31,26.82,23,47.39,23,36.7,0,64.34-27.43,64.34-67.77C403.58,112.36,375.94,84.73,339.24,84.73Zm-4,114.36c-26,0-43.36-18.77-43.36-46.6,0-27.62,17.34-46.59,43.36-46.59,25.81,0,44,19,44,46.59C379.17,180.32,361,199.09,335.21,199.09Z"/><text class="cls-2" transform="translate(268.24 13.19)">Saúde <tspan x="0" y="17.3">Empreende</tspan><tspan x="0" y="34.6">Experience</tspan><tspan class="cls-3" x="0" y="51.89">P</tspan><tspan x="10" y="51.89">ocket</tspan></text></g></g></svg>